HIERARCHY
ROOT Bip001_Pelvis
{
  OFFSET 34.4345 95.6767 -26.8758
  CHANNELS 6 Xposition Yposition Zposition Zrotation Xrotation Yrotation
  JOINT Bip001_Spine
  {
    OFFSET 1.4188e-005 10.2191 -0.0116013
    CHANNELS 3 Zrotation Xrotation Yrotation
    JOINT Bip001_L_Thigh
    {
      OFFSET 11.0458 -10.2192 0.0116197
      CHANNELS 3 Zrotation Xrotation Yrotation
      JOINT Bip001_L_Calf
      {
        OFFSET -0.707118 -44.0221 0.360014
        CHANNELS 3 Zrotation Xrotation Yrotation
        JOINT Bip001_L_Foot
        {
          OFFSET -0.651902 -40.5938 -3.56146
          CHANNELS 3 Zrotation Xrotation Yrotation
          JOINT Bip001_L_Toe0
          {
            OFFSET 0.0530839 -10.2181 13.1504
            CHANNELS 3 Zrotation Xrotation Yrotation
            End Site
            {
              OFFSET -1.02532e-005 0 7.55606
            }
          }
        }
      }
    }
    JOINT Bip001_R_Thigh
    {
      OFFSET -11.0458 -10.2191 0.0115893
      CHANNELS 3 Zrotation Xrotation Yrotation
      JOINT Bip001_R_Calf
      {
        OFFSET 0.706994 -44.0221 0.35984
        CHANNELS 3 Zrotation Xrotation Yrotation
        JOINT Bip001_R_Foot
        {
          OFFSET 0.651786 -40.5938 -3.5613
          CHANNELS 3 Zrotation Xrotation Yrotation
          JOINT Bip001_R_Toe0
          {
            OFFSET -0.0531479 -10.2181 13.1504
            CHANNELS 3 Zrotation Xrotation Yrotation
            End Site
            {
              OFFSET -1.02894e-005 0 7.55606
            }
          }
        }
      }
    }
    JOINT Bip001_Spine1
    {
      OFFSET 1.87041e-005 14.5736 1.08638
      CHANNELS 3 Zrotation Xrotation Yrotation
      JOINT Bip001_Spine2
      {
        OFFSET 2.24614e-005 14.5058 -1.69078
        CHANNELS 3 Zrotation Xrotation Yrotation
        JOINT Bip001_Neck
        {
          OFFSET 2.20278e-005 15.3945 -0.489414
          CHANNELS 3 Zrotation Xrotation Yrotation
          JOINT Bip001_L_Clavicle
          {
            OFFSET 6.06036 -0.000579998 0.00836775
            CHANNELS 3 Zrotation Xrotation Yrotation
            JOINT Bip001_L_UpperArm
            {
              OFFSET 11.5509 -0.0600302 0.00193952
              CHANNELS 3 Zrotation Xrotation Yrotation
              JOINT Bip001_L_Forearm
              {
                OFFSET 25.9523 0.0806089 -2.15551
                CHANNELS 3 Zrotation Xrotation Yrotation
                JOINT Bip001_L_Hand
                {
                  OFFSET 32.2475 0.153767 1.63968
                  CHANNELS 3 Zrotation Xrotation Yrotation
                  JOINT Bip001_L_Finger0
                  {
                    OFFSET 6.04639 -2.20976 5.90322
                    CHANNELS 3 Zrotation Xrotation Yrotation
                    End Site
                    {
                      OFFSET 4.22375 -1.43895 0.606485
                    }
                  }
                  JOINT Bip001_L_Finger1
                  {
                    OFFSET 11.0826 -0.704819 -0.198153
                    CHANNELS 3 Zrotation Xrotation Yrotation
                    End Site
                    {
                      OFFSET 6.20027 -0.397518 -0.0787166
                    }
                  }
                }
              }
            }
          }
          JOINT Bip001_R_Clavicle
          {
            OFFSET -6.06037 -0.000563197 0.00835105
            CHANNELS 3 Zrotation Xrotation Yrotation
            JOINT Bip001_R_UpperArm
            {
              OFFSET -11.5509 -0.0599978 0.00190698
              CHANNELS 3 Zrotation Xrotation Yrotation
              JOINT Bip001_R_Forearm
              {
                OFFSET -25.9523 0.0806822 -2.15589
                CHANNELS 3 Zrotation Xrotation Yrotation
                JOINT Bip001_R_Hand
                {
                  OFFSET -32.2475 0.153859 1.63989
                  CHANNELS 3 Zrotation Xrotation Yrotation
                  JOINT Bip001_R_Finger0
                  {
                    OFFSET -6.04641 -2.20976 5.90317
                    CHANNELS 3 Zrotation Xrotation Yrotation
                    End Site
                    {
                      OFFSET -4.22376 -1.43895 0.60647
                    }
                  }
                  JOINT Bip001_R_Finger1
                  {
                    OFFSET -11.0826 -0.704794 -0.198182
                    CHANNELS 3 Zrotation Xrotation Yrotation
                    End Site
                    {
                      OFFSET -6.20028 -0.397504 -0.0787333
                    }
                  }
                }
              }
            }
          }
          JOINT Bip001_Head
          {
            OFFSET 1.09673e-005 11.2744 2.05948
            CHANNELS 3 Zrotation Xrotation Yrotation
            End Site
            {
              OFFSET 2.89576e-005 20.8808 -2.77728e-005
            }
          }
        }
      }
    }
  }
}
MOTION
Frames:	8
Frame Time:	0.04
33.2764 94.8776 -29.4229 -3.79324 -1.10089 10.8054 -0.523249 0.862798 1.08136 11.9421 -9.88372 8.84006 0.45772 22.3811 -9.85024 0.153224 -11.456 0.0457557 0.743139 -3.09089 -0.780285 0.407631 -0.0108299 -2.43904 1.30691 10.8988 -0.508411 -9.83673 -6.28599 -10.254 3.06564 -10.254 3.4303 -1.06287 1.71554 2.17092 -1.06286 1.71553 2.1709 8.673 -10.3511 -8.08298 -32.7348 8.45113 2.24062 -45.1514 39.8924 4.37389 18.2822 1.31694 -34.0005 5.76815 1.3135 -5.26162 -3.18055e-015 -3.18055e-015 3.18055e-015 -6.36111e-015 -3.18056e-015 3.18055e-015 -7.17771 11.9263 27.3694 42.3658 -47.2607 43.7044 -43.6309 -8.77755 63.4573 -4.38488 0.0180264 5.44887 -4.41391e-032 -3.18055e-015 -7.95139e-016 -8.82782e-032 -6.36111e-015 -7.95139e-016 -7.46291 -5.80902 -4.6981 
33.0123 95.3419 -29.64 -4.43183 -0.328909 11.8183 -0.783943 0.816189 1.87639 12.9018 -10.2711 7.06635 -0.623749 20.1317 -9.09002 -0.936886 -10.6413 0.00642476 0.462889 -2.33704 -0.544108 1.66263 1.1371 -3.21218 0.94441 6.39405 -0.741733 -9.3054 -3.92847 -10.6834 2.90985 -9.84912 3.34243 -1.59467 1.60674 3.7633 -1.59636 1.60732 3.76371 9.83998 -12.2318 -10.7656 -33.8945 8.86093 3.69396 -42.2853 39.4421 3.51757 17.8227 1.67274 -34.5672 5.97411 0.990751 -5.0381 3.18055e-015 -3.18055e-015 6.36111e-015 3.18055e-015 -3.18056e-015 6.36111e-015 -10.5623 12.5957 30.6355 27.9203 -37.1764 41.4441 -41.5444 -9.6952 45.5945 -5.8879 -0.0197483 6.27474 -3.18055e-015 -3.18055e-015 1.59028e-015 8.82782e-032 -3.18056e-015 1.59028e-015 -8.34382 -4.39935 -6.88243 
32.939 95.7112 -29.6317 -3.75179 -0.154903 11.9001 -0.950389 0.92414 2.36052 12.5733 -9.01912 6.80594 -1.21029 17.1343 -8.45197 -3.42383 -10.3954 -0.0840292 -0.180818 -0.684576 -0.11023 1.48276 1.86223 -3.95208 0.420308 4.49137 -0.963243 -8.62975 -2.99798 -10.3235 2.77126 -9.55145 3.38149 -1.94311 1.80802 4.73894 -1.93667 1.80855 4.73752 8.755 -13.1124 -12.3327 -33.6607 8.84543 5.8962 -40.1896 39.9443 2.62277 18.6073 2.35854 -34.7815 5.05964 0.58017 -5.55567 -0 -9.54166e-015 -0 3.18055e-015 -6.36111e-015 3.18055e-015 -15.3821 11.1799 36.6455 23.0305 -35.1436 43.9058 -44.4466 -6.66084 31.031 -5.11535 -0.934286 5.87869 6.36111e-015 6.36111e-015 -3.18055e-015 3.18055e-015 3.18056e-015 -1.59028e-015 -7.77942 -2.23322 -8.58255 
32.631 95.8929 -29.7099 -3.88555 0.441913 13.1924 -0.991967 0.889325 2.44413 12.5852 -9.23103 6.30086 -1.41379 15.2405 -8.84485 -2.30263 -8.57841 0.019574 0.701281 -1.66003 -0.932014 1.9071 2.39066 -4.2923 0.316197 2.22745 -1.39776 -8.50496 -1.97316 -10.7438 2.76144 -9.46414 3.26973 -2.0132 1.73556 4.90858 -2.01389 1.73555 4.90625 10.1397 -12.4059 -14.3009 -34.6081 6.47096 8.32281 -39.1419 40.863 1.05901 19.2905 3.2654 -34.4046 5.21464 0.764196 -5.79759 -6.36111e-015 -6.36111e-015 6.36111e-015 7.06225e-031 -6.36111e-015 6.36111e-015 -17.4448 9.26092 39.4098 32.1997 -48.0718 55.9654 -46.2799 4.64863 33.602 12.8553 -5.34454 -2.86037 6.36111e-015 0 -1.59028e-015 3.18055e-015 0 -0 -7.97577 -1.82262 -10.2247 
32.6325 95.9507 -29.7474 -3.81089 0.186019 14.1121 -0.855331 0.905295 2.5884 12.0937 -8.58479 6.16558 -1.01021 13.7097 -9.75524 -2.16564 -7.66058 0.027636 0.860342 -1.93421 -1.11224 1.78753 2.95955 -5.44387 0.368935 1.74957 -1.42325 -8.356 -1.95821 -10.6292 2.76963 -9.50897 3.31778 -1.74638 1.76806 5.17909 -1.74911 1.76904 5.18454 13.3609 -11.0732 -15.927 -36.7746 3.81263 8.02963 -40.0544 41.009 1.46849 19.8993 4.73583 -34.5723 5.3186 0.739532 -5.88827 9.54166e-015 3.18055e-015 -6.36111e-015 9.54166e-015 -3.18056e-015 -3.18055e-015 -21.7383 5.44392 33.7985 21.3599 -45.0187 48.9526 -44.4241 5.42489 32.931 6.74227 -3.75007 2.37284 4.41391e-032 3.18055e-015 -7.95139e-016 -6.36111e-015 3.18056e-015 -1.59028e-015 -10.9481 -2.6189 -10.4194 
32.5753 96.0487 -29.9638 -4.02984 0.0748723 14.5407 -0.519578 0.718897 2.22453 12.2735 -8.00181 6.38011 -1.65349 12.6773 -10.6305 -1.61689 -6.82769 0.0430071 0.468288 -2.50184 -0.568393 1.79145 3.13496 -5.74667 0.203462 1.68286 -1.44276 -8.22129 -1.96949 -10.3913 2.79658 -9.54429 3.27818 -1.06679 1.41705 4.45603 -1.06679 1.41705 4.45604 14.7776 -7.2058 -15.9614 -37.2222 0.475335 5.25457 -42.1874 42.7443 4.61705 18.8391 3.87536 -33.9592 5.86143 0.667772 -5.74781 3.18055e-015 -9.54166e-015 -3.18055e-015 -0 -3.18056e-015 -0 -26.3687 -0.665627 28.3033 8.13894 -31.5408 38.0159 -44.8867 -8.30031 26.663 -7.59285 -0.678954 7.15054 1.59028e-015 -1.59028e-015 3.57812e-015 3.18055e-015 -1.59028e-015 3.57812e-015 -12.461 -4.51308 -9.76885 
32.6852 96.0142 -30.202 -2.85578 0.415316 12.6021 -0.678506 0.713239 1.95587 11.0277 -6.55523 6.91299 -1.73071 10.6242 -9.386 -0.227036 -5.19829 0.0615365 1.17911 -3.68757 -1.07804 0.403298 2.62723 -4.20639 0.264596 2.08082 -1.50884 -8.12364 -2.22515 -9.79114 2.75286 -9.4656 3.30774 -1.39251 1.40347 3.92166 -1.39052 1.40302 3.92155 14.6898 -5.4201 -14.703 -35.8139 -0.429478 4.82152 -43.1422 47.6655 4.54496 18.2464 2.5666 -30.9325 3.95168 0.496018 -6.13472 3.18055e-015 3.18055e-015 -0 0 6.36111e-015 -0 -27.7867 -2.43875 26.1986 16.9551 -35.2717 44.2025 -45.0304 -11.4706 36.1343 -7.6201 2.91484 6.60078 -1.59028e-015 0 5.1684e-015 -2.20695e-031 3.18056e-015 3.97569e-015 -11.6179 -5.7653 -8.71646 
32.6512 95.9516 -30.3539 -2.1279 -0.0210248 10.0758 -0.672515 0.919296 1.5253 10.2873 -5.41809 9.33365 -1.07106 10.4711 -8.68215 -0.560333 -5.49009 0.0603387 1.47366 -3.6372 -1.41959 -0.601291 1.60681 -2.5187 0.448596 4.24442 -1.01221 -8.08018 -3.44606 -9.08069 2.73271 -9.38295 3.26444 -1.34963 1.82064 3.0588 -1.35858 1.82059 3.05934 11.9321 -4.75536 -12.2318 -32.3407 0.444436 5.31796 -44.8023 48.6769 4.11284 19.5466 4.57361 -29.4017 2.43612 0.936752 -6.01934 6.36111e-015 0 -0 3.18055e-015 0 1.59028e-015 -22.2683 -0.224273 23.8706 30.9215 -39.4151 59.0582 -45.3354 -7.98104 47.9278 -0.0541195 2.44693 7.65163 3.18055e-015 -3.18055e-015 7.95139e-016 3.18055e-015 -3.18056e-015 7.95139e-016 -8.71887 -5.78018 -7.39091 
